<?xml version="1.0" encoding="UTF-8"?><svg id="Layer_1" xmlns="http://www.w3.org/2000/svg" viewBox="0 0 160.87 103.54"><defs><style>.cls-1,.cls-2,.cls-3{fill:#fff;}.cls-2{font-family:MontserratLight;font-size:14.63px;}.cls-4{letter-spacing:0em;}.cls-5{letter-spacing:0em;}.cls-3{font-family:Span;font-size:27.67px;}.cls-6{letter-spacing:0em;}.cls-7{letter-spacing:0em;}.cls-8{letter-spacing:0em;}.cls-9{letter-spacing:-.01em;}.cls-10{letter-spacing:0em;}.cls-11{letter-spacing:0em;}.cls-12{letter-spacing:0em;}</style></defs><path class="cls-1" d="M60.71,26.9c-.15-7.95,6.64-14.39,14.84-14.39,6.57,0,12.13,4.14,14.09,9.87h13.29C100.76,9.68,89.39,0,75.69,0c-15.26,0-27.62,11.99-27.62,26.79,0,9.49,5.02,17.67,12.69,22.43l-.07-20.42c-.01-.61,.03-1.28,.02-1.9Z"/><path class="cls-1" d="M75.65,41.29c-2.54,0-4.92-.62-7.01-1.71v13.09c2.28,.59,4.68,.91,7.15,.91,14.21,0,25.92-10.42,27.45-23.81h-13.04c-1.38,6.57-7.36,11.51-14.54,11.51Z"/><text class="cls-3" transform="translate(0 83.78)"><tspan class="cls-8" x="0" y="0">C</tspan><tspan class="cls-5" x="19.31" y="0">o</tspan><tspan class="cls-11" x="33.98" y="0">nsoli</tspan><tspan class="cls-4" x="92.61" y="0">d</tspan><tspan class="cls-6" x="108.27" y="0">a</tspan><tspan class="cls-12" x="122" y="0">t</tspan><tspan class="cls-10" x="131.43" y="0">e</tspan><tspan x="145.46" y="0">d</tspan></text><text class="cls-2" transform="translate(35.1 99.72)"><tspan class="cls-9" x="0" y="0">P</tspan><tspan class="cls-7" x="10.31" y="0">L</tspan><tspan x="18.89" y="0">ANNING</tspan></text></svg>