<svg id="Layer_1" data-name="Layer 1" xmlns="http://www.w3.org/2000/svg" viewBox="0 0 261.0198 253.5501"><defs><style>.cls-1,.cls-2,.cls-6{fill:#fff;}.cls-2{font-size:32.4858px;font-family:MyriadPro-Regular, Myriad Pro;}.cls-3{letter-spacing:-0.011em;}.cls-4{letter-spacing:-0.004em;}.cls-5{letter-spacing:-0.006em;}.cls-6{font-size:17.1771px;font-family:Montserrat-Light, Montserrat;font-weight:300;}.cls-7{letter-spacing:-0.0099em;}.cls-8{letter-spacing:0.001em;}</style></defs><path class="cls-1" d="M94.0564,97.9093c-.0936-21.0782,17.6174-38.1659,39.3494-38.1659a39.2653,39.2653,0,0,1,37.3551,26.1709h35.25c-5.76-33.6574-35.8987-59.3255-72.2334-59.3255-40.4507,0-73.2423,31.8055-73.2423,71.04,0,25.1644,13.502,47.2559,33.8505,59.8763L94.3531,102.83A42.96,42.96,0,0,1,94.0564,97.9093Z"/><path class="cls-1" d="M133.4058,136.0753a40.1376,40.1376,0,0,1-18.5963-4.527v34.7a75.4455,75.4455,0,0,0,18.9679,2.4193c37.6909,0,68.7189-27.618,72.7788-63.1253h-34.59C168.3206,122.9631,152.4426,136.0753,133.4058,136.0753Z"/><text class="cls-2" transform="translate(39.5696 207.6081)"><tspan class="cls-3">C</tspan><tspan x="18.4844" y="0">onsolid</tspan><tspan class="cls-4" x="118.6367" y="0">a</tspan><tspan class="cls-5" x="134.165" y="0">t</tspan><tspan x="144.7227" y="0">ed</tspan></text><text class="cls-6" transform="translate(80.7832 226.3253)"><tspan class="cls-7">P</tspan><tspan class="cls-8" x="12.1104" y="0">L</tspan><tspan x="22.1758" y="0">ANNING</tspan></text></svg>