<svg id="Layer_1" data-name="Layer 1" xmlns="http://www.w3.org/2000/svg" viewBox="0 0 1593.2541 501.8873"><defs><style>.cls-1,.cls-3,.cls-7{fill:#2d3f63;}.cls-2{fill:#b69c4f;}.cls-3{font-size:199.5421px;font-family:MyriadPro-Regular, Myriad Pro;}.cls-4{letter-spacing:-0.011em;}.cls-5{letter-spacing:-0.004em;}.cls-6{letter-spacing:-0.006em;}.cls-7{font-size:105.5094px;font-family:Montserrat-Light, Montserrat;font-weight:300;}.cls-8{letter-spacing:-0.01em;}.cls-9{letter-spacing:0.001em;}</style></defs><path class="cls-1" d="M120.0557,245.3946c-.2388-53.7534,44.9274-97.33,100.348-97.33,44.3988,0,82.0372,27.9785,95.2622,66.7405h89.8935C390.87,128.9727,314.0113,63.5145,221.3511,63.5145c-103.1563,0-186.7809,81.11-186.7809,181.1634,0,64.1736,34.4327,120.511,86.3248,152.6952l-1.0558-139.62C120.0262,253.8251,120.0744,249.6011,120.0557,245.3946Z"/><path class="cls-2" d="M220.4037,342.7246A102.3568,102.3568,0,0,1,172.98,331.18v88.4917a192.3994,192.3994,0,0,0,48.3713,6.17c96.1188,0,175.2456-70.4308,185.5991-160.9807h-88.21C309.4425,309.2861,268.9509,342.7246,220.4037,342.7246Z"/><text class="cls-3" transform="translate(454.293 262.0312)"><tspan class="cls-4">C</tspan><tspan x="113.5391" y="0">onsolid</tspan><tspan class="cls-5" x="728.7197" y="0">a</tspan><tspan class="cls-6" x="824.1006" y="0">t</tspan><tspan x="888.9512" y="0">ed</tspan></text><text class="cls-7" transform="translate(707.4453 377)"><tspan class="cls-8">P</tspan><tspan class="cls-9" x="74.3848" y="0">L</tspan><tspan x="136.2109" y="0">ANNING</tspan></text></svg>