<svg id="Layer_1" data-name="Layer 1" xmlns="http://www.w3.org/2000/svg" viewBox="0 0 228.08 130.5"><defs><style>.cls-1,.cls-2,.cls-6{fill:#fff;}.cls-2{font-size:41.32px;font-family:MyriadPro-Regular, Myriad Pro;}.cls-3{letter-spacing:-0.01em;}.cls-4{letter-spacing:0em;}.cls-5{letter-spacing:-0.01em;}.cls-6{font-size:21.85px;font-family:Montserrat-Light, Montserrat;font-weight:300;}.cls-7{letter-spacing:-0.01em;}.cls-8{letter-spacing:0em;}</style></defs><path class="cls-1" d="M119.44,91.35c0-8.13,6.79-14.71,15.17-14.71A15.13,15.13,0,0,1,149,86.72H162.6c-2.23-13-13.84-22.87-27.85-22.87-15.59,0-28.23,12.27-28.23,27.39a27.15,27.15,0,0,0,13,23.08l0-21.08A16.83,16.83,0,0,1,119.44,91.35Z" transform="translate(-22.16 -63.85)"/><path class="cls-1" d="M134.61,106.06a15.47,15.47,0,0,1-7.17-1.74v13.37a28.83,28.83,0,0,0,7.31.93c14.53,0,26.49-10.64,28.06-24.33H149.47A15.05,15.05,0,0,1,134.61,106.06Z" transform="translate(-22.16 -63.85)"/><text class="cls-2" transform="translate(0 100.99)"><tspan class="cls-3">C</tspan><tspan x="23.51" y="0">onsolid</tspan><tspan class="cls-4" x="150.9" y="0">a</tspan><tspan class="cls-5" x="170.65" y="0">t</tspan><tspan x="184.08" y="0">ed</tspan></text><text class="cls-6" transform="translate(52.42 124.8)"><tspan class="cls-7">P</tspan><tspan class="cls-8" x="15.4" y="0">L</tspan><tspan x="28.21" y="0">ANNING</tspan></text></svg>